<?xml version="1.0" standalone="no"?>
<!DOCTYPE svg PUBLIC "-//W3C//DTD SVG 20010904//EN"
 "http://www.w3.org/TR/2001/REC-SVG-20010904/DTD/svg10.dtd">
<svg version="1.0" xmlns="http://www.w3.org/2000/svg"
 width="24.000000pt" height="24.000000pt" viewBox="0 0 24.000000 24.000000"
 preserveAspectRatio="xMidYMid meet">

<g transform="translate(0.000000,24.000000) scale(0.100000,-0.100000)"
fill="#000000" stroke="none">
<path d="M108 233 c6 -2 18 -2 25 0 6 3 1 5 -13 5 -14 0 -19 -2 -12 -5z"/>
<path d="M39 201 c-16 -16 -29 -35 -29 -43 1 -7 7 -1 16 14 8 15 27 34 42 42
15 9 21 15 14 16 -8 0 -27 -13 -43 -29z"/>
<path d="M172 214 c15 -8 34 -27 42 -42 9 -15 15 -21 16 -14 0 8 -13 27 -29
43 -16 16 -35 29 -43 29 -7 -1 -1 -7 14 -16z"/>
<path d="M50 170 c-32 -60 97 -156 140 -104 19 22 -12 54 -38 37 -24 -14 -68
16 -59 41 15 40 -23 63 -43 26z m35 -25 c0 -38 47 -74 70 -55 11 9 19 10 27 2
30 -30 -40 -44 -80 -16 -29 20 -54 68 -46 89 10 25 29 12 29 -20z"/>
<path d="M6 105 c3 -22 5 -55 5 -72 -2 -30 0 -32 21 -24 13 4 32 5 43 0 11 -4
31 -7 45 -7 20 0 18 2 -10 9 -19 6 -47 10 -62 10 -22 0 -27 5 -27 27 0 15 -5
43 -10 62 l-11 35 6 -40z"/>
<path d="M232 120 c0 -14 2 -19 5 -12 2 6 2 18 0 25 -3 6 -5 1 -5 -13z"/>
<path d="M215 69 c-4 -11 -21 -29 -38 -40 -18 -10 -26 -19 -19 -19 16 0 72 54
72 69 0 18 -8 13 -15 -10z"/>
</g>
</svg>
